<svg width="14" height="16" viewBox="0 0 14 16" fill="none" xmlns="http://www.w3.org/2000/svg">
<path d="M4.50016 2.16676C4.27915 2.16676 4.06719 2.25455 3.91091 2.41083C3.75463 2.56711 3.66683 2.77908 3.66683 3.00009C3.66683 3.2211 3.75463 3.43306 3.91091 3.58934C4.06719 3.74562 4.27915 3.83342 4.50016 3.83342C4.72118 3.83342 4.93314 3.74562 5.08942 3.58934C5.2457 3.43306 5.3335 3.2211 5.3335 3.00009C5.3335 2.77908 5.2457 2.56711 5.08942 2.41083C4.93314 2.25455 4.72118 2.16676 4.50016 2.16676ZM2.14183 2.16676C2.314 1.67881 2.63328 1.25628 3.05566 0.957413C3.47805 0.658543 3.98273 0.498047 4.50016 0.498047C5.01759 0.498047 5.52228 0.658543 5.94466 0.957413C6.36705 1.25628 6.68633 1.67881 6.8585 2.16676H12.8335C13.0545 2.16676 13.2665 2.25455 13.4228 2.41083C13.579 2.56711 13.6668 2.77908 13.6668 3.00009C13.6668 3.2211 13.579 3.43306 13.4228 3.58934C13.2665 3.74562 13.0545 3.83342 12.8335 3.83342H6.8585C6.68633 4.32137 6.36705 4.74389 5.94466 5.04276C5.52228 5.34163 5.01759 5.50213 4.50016 5.50213C3.98273 5.50213 3.47805 5.34163 3.05566 5.04276C2.63328 4.74389 2.314 4.32137 2.14183 3.83342H1.16683C0.945816 3.83342 0.733854 3.74562 0.577574 3.58934C0.421294 3.43306 0.333496 3.2211 0.333496 3.00009C0.333496 2.77908 0.421294 2.56711 0.577574 2.41083C0.733854 2.25455 0.945816 2.16676 1.16683 2.16676H2.14183ZM9.50016 7.16676C9.27915 7.16676 9.06719 7.25455 8.91091 7.41083C8.75463 7.56711 8.66683 7.77908 8.66683 8.00009C8.66683 8.2211 8.75463 8.43306 8.91091 8.58934C9.06719 8.74562 9.27915 8.83342 9.50016 8.83342C9.72118 8.83342 9.93314 8.74562 10.0894 8.58934C10.2457 8.43306 10.3335 8.2211 10.3335 8.00009C10.3335 7.77908 10.2457 7.56711 10.0894 7.41083C9.93314 7.25455 9.72118 7.16676 9.50016 7.16676ZM7.14183 7.16676C7.314 6.67881 7.63328 6.25628 8.05566 5.95741C8.47805 5.65854 8.98273 5.49805 9.50016 5.49805C10.0176 5.49805 10.5223 5.65854 10.9447 5.95741C11.367 6.25628 11.6863 6.67881 11.8585 7.16676H12.8335C13.0545 7.16676 13.2665 7.25455 13.4228 7.41083C13.579 7.56711 13.6668 7.77908 13.6668 8.00009C13.6668 8.2211 13.579 8.43306 13.4228 8.58934C13.2665 8.74562 13.0545 8.83342 12.8335 8.83342H11.8585C11.6863 9.32137 11.367 9.74389 10.9447 10.0428C10.5223 10.3416 10.0176 10.5021 9.50016 10.5021C8.98273 10.5021 8.47805 10.3416 8.05566 10.0428C7.63328 9.74389 7.314 9.32137 7.14183 8.83342H1.16683C0.945816 8.83342 0.733854 8.74562 0.577574 8.58934C0.421294 8.43306 0.333496 8.2211 0.333496 8.00009C0.333496 7.77908 0.421294 7.56711 0.577574 7.41083C0.733854 7.25455 0.945816 7.16676 1.16683 7.16676H7.14183ZM4.50016 12.1668C4.27915 12.1668 4.06719 12.2546 3.91091 12.4108C3.75463 12.5671 3.66683 12.7791 3.66683 13.0001C3.66683 13.2211 3.75463 13.4331 3.91091 13.5893C4.06719 13.7456 4.27915 13.8334 4.50016 13.8334C4.72118 13.8334 4.93314 13.7456 5.08942 13.5893C5.2457 13.4331 5.3335 13.2211 5.3335 13.0001C5.3335 12.7791 5.2457 12.5671 5.08942 12.4108C4.93314 12.2546 4.72118 12.1668 4.50016 12.1668ZM2.14183 12.1668C2.314 11.6788 2.63328 11.2563 3.05566 10.9574C3.47805 10.6585 3.98273 10.498 4.50016 10.498C5.01759 10.498 5.52228 10.6585 5.94466 10.9574C6.36705 11.2563 6.68633 11.6788 6.8585 12.1668H12.8335C13.0545 12.1668 13.2665 12.2546 13.4228 12.4108C13.579 12.5671 13.6668 12.7791 13.6668 13.0001C13.6668 13.2211 13.579 13.4331 13.4228 13.5893C13.2665 13.7456 13.0545 13.8334 12.8335 13.8334H6.8585C6.68633 14.3214 6.36705 14.7439 5.94466 15.0428C5.52228 15.3416 5.01759 15.5021 4.50016 15.5021C3.98273 15.5021 3.47805 15.3416 3.05566 15.0428C2.63328 14.7439 2.314 14.3214 2.14183 13.8334H1.16683C0.945816 13.8334 0.733854 13.7456 0.577574 13.5893C0.421294 13.4331 0.333496 13.2211 0.333496 13.0001C0.333496 12.7791 0.421294 12.5671 0.577574 12.4108C0.733854 12.2546 0.945816 12.1668 1.16683 12.1668H2.14183Z" fill="white"/>
</svg>
