<svg width="251" height="20" viewBox="0 0 251 20" fill="none" xmlns="http://www.w3.org/2000/svg">
<g id="Financial Times svg">
<path id="Vector" fill-rule="evenodd" clip-rule="evenodd" d="M6.20891 16.8858C6.20891 18.2667 6.61143 18.5823 9.18664 18.5823V19.4502H0.213379V18.5823C1.98379 18.5823 2.58768 18.4244 2.58768 16.9253V2.8407C2.58768 1.3414 1.98379 1.18349 0.213379 1.18349V0.315581H15.2628L15.3435 5.56279H14.6191C14.2166 1.61767 13.2106 1.26279 9.46842 1.26279H6.16883V9.07442H8.82444C11.3596 9.07442 11.5206 8.67977 11.7218 6.70721H12.4461V12.4279H11.7218C11.5206 10.4553 11.3596 10.1 8.82444 10.1H6.16883V16.886H6.20915L6.20891 16.8858ZM17.1943 19.4502V18.5823C18.9649 18.5823 19.5686 18.4244 19.5686 16.9253V2.8407C19.5686 1.3414 18.9649 1.18349 17.1943 1.18349V0.315581H25.5641V1.18372C23.7935 1.18372 23.1898 1.34163 23.1898 2.84093V16.9256C23.1898 18.4247 23.7935 18.5826 25.5641 18.5826V19.4505H17.194L17.1943 19.4502ZM44.5569 19.7658L31.1975 3.5507V16.8465C31.1975 18.3853 32.2838 18.6219 34.1351 18.6219V19.49H27.053V18.6219C28.9038 18.6219 29.91 18.3853 29.91 16.8465V2.09093C29.0649 1.22302 28.4612 1.18349 27.053 1.18349V0.315581H33.3303L43.551 13.2167V2.91953C43.551 1.38093 42.4646 1.14419 40.6136 1.14419V0.315581H47.7358V1.18372C45.8849 1.18372 44.8788 1.42047 44.8788 2.9593V19.7663H44.5569V19.7658ZM54.0937 19.4502H47.0517V18.5823C48.9028 18.5823 49.7479 18.3456 50.3513 16.7674L56.7093 0.118372H58.4797L65.3203 16.8858C65.924 18.3851 66.2055 18.5428 67.614 18.5428V19.4107H59.4455V18.5428C61.9403 18.5428 62.1818 18.3456 61.5779 16.8858L59.5663 11.7965H53.4498L51.6393 16.7279C51.0759 18.2272 51.9611 18.5428 54.1341 18.5428V19.4502H54.0937ZM53.8119 10.81H59.1234L56.3471 3.94535L53.8119 10.81ZM85.963 19.7658L72.6439 3.5507V16.8465C72.6439 18.3853 73.7302 18.6219 75.5813 18.6219V19.49H68.66V18.6219C70.3503 18.6219 71.3562 18.3853 71.3562 16.8465V2.13047C70.3906 1.26256 69.6662 1.18349 68.0568 1.18349V0.315581H74.7362L84.9568 13.2167V2.91953C84.9568 1.38093 83.8705 1.14419 82.0197 1.14419V0.315581H89.1018V1.18372C87.2507 1.18372 86.2448 1.42047 86.2448 2.9593V19.7663H85.963V19.7658ZM105.721 0.276279H106.203L106.485 5.99674L105.761 6.03628C105.278 2.76186 103.507 1.02581 100.248 1.02581C96.6265 1.02581 93.8903 4.06372 93.8903 8.71907C93.8903 14.6765 97.7129 18.0693 101.737 18.0693C103.467 18.0693 105.036 17.596 106.565 15.9786L107.129 16.5307C105.881 18.2667 103.427 19.7265 100.127 19.7265C95.2181 19.7265 90.2285 16.0967 90.2285 10.0209C90.2282 4.14256 94.7752 0 100.288 0C102.904 0 104.272 1.10465 104.996 1.10465C105.318 1.10465 105.559 0.828605 105.721 0.276279ZM108.738 19.4502V18.5823C110.509 18.5823 111.113 18.4244 111.113 16.9253V2.8407C111.113 1.3414 110.509 1.18349 108.738 1.18349V0.315581H117.108V1.18372C115.338 1.18372 114.734 1.34163 114.734 2.84093V16.9256C114.734 18.4247 115.338 18.5826 117.108 18.5826V19.4505L108.738 19.4502ZM124.995 19.4502H118.436V18.5823C119.885 18.5823 120.649 18.3456 121.253 16.7674L127.611 0.118372H129.381L136.222 16.8858C136.825 18.3851 137.107 18.5428 138.515 18.5428V19.4107H130.347V18.5428C132.842 18.5428 133.083 18.3456 132.48 16.8858L130.468 11.7965H124.352L122.541 16.7279C121.977 18.2272 122.863 18.5428 125.036 18.5428V19.4502H124.995ZM124.713 10.81H130.025L127.289 3.94535L124.713 10.81ZM139.883 19.4502V18.5823C141.654 18.5823 142.258 18.4244 142.258 16.9253V2.8407C142.258 1.3414 141.654 1.18349 139.883 1.18349V0.315581H148.213V1.18372C146.443 1.18372 145.879 1.34163 145.879 2.84093V17.044C145.879 18.3063 146.523 18.4642 147.569 18.4642H148.575C152.358 18.4642 153.565 17.9119 154.611 13.6905L155.335 13.7693L154.732 19.4112H139.883V19.4507V19.4502ZM180.445 0.315581L180.525 5.87837H179.801C179.399 1.77535 178.393 1.26279 174.65 1.26279H173.443V16.886C173.443 18.3853 174.006 18.5826 176.421 18.5826V19.4505H166.844V18.5826C169.258 18.5826 169.862 18.3458 169.862 16.886V1.26256H168.655C164.912 1.26256 163.906 1.77535 163.504 5.87837H162.78L162.86 0.315581H180.445ZM182.336 19.4505V18.5823C184.106 18.5823 184.71 18.4244 184.71 16.9253V2.8407C184.71 1.3414 184.106 1.18349 182.336 1.18349V0.315581H190.706V1.18372C188.935 1.18372 188.331 1.34163 188.331 2.84093V16.9256C188.331 18.4247 188.935 18.5826 190.706 18.5826V19.4505H182.336ZM215.896 0.315349V1.18372C214.125 1.18372 213.36 1.26279 213.521 2.8014L215.05 17.0044C215.212 18.4642 215.775 18.6219 217.545 18.6219V19.49H209.216V18.6219C210.946 18.6219 211.55 18.4642 211.429 17.0044L209.86 2.0907L203.703 19.8051H203.461L197.425 2.05163L195.977 16.9646C195.816 18.464 196.862 18.6216 198.632 18.6216V19.4898H192.114V18.6216C193.884 18.6216 194.488 18.3456 194.608 16.9646L196.138 2.76163C196.299 1.26256 195.534 1.14419 193.763 1.14419V0.315581H200.604L204.709 13.3744L209.135 0.315581H215.895L215.896 0.315349ZM231.468 12.4274H230.744C230.543 10.4549 230.382 10.0995 227.847 10.0995H224.869V17.0435C224.869 18.3058 225.513 18.4637 226.559 18.4637H228.168C231.951 18.4637 233.158 17.9114 234.204 13.69L234.928 13.7688L234.244 19.4107H218.873V18.5426C220.643 18.5426 221.247 18.3849 221.247 16.8856V2.8407C221.247 1.3414 220.644 1.18349 218.873 1.18349V0.315581H233.641L233.721 5.0893H232.997C232.554 1.69628 231.669 1.30186 227.806 1.30186H224.909V9.07395H227.887C230.422 9.07395 230.583 8.67953 230.784 6.70698H231.508V12.4277H231.468L231.468 12.4274ZM247 15.5047C247 13.7688 245.874 12.9009 243.942 11.8356L240.844 10.2574C238.51 9.03442 237.142 7.69302 237.142 5.28651C237.142 2.28837 239.757 0 243.178 0C245.512 0 246.719 1.10465 247.403 1.10465C247.845 1.10465 248.046 0.828605 248.248 0.276279H248.811L249.093 5.64186L248.368 5.6814C247.966 3.07721 246.075 1.06512 243.419 1.06512C241.407 1.06512 240.079 2.24884 240.079 3.90581C240.079 5.7207 241.487 6.47023 243.057 7.29884L245.712 8.67953C248.207 10.0209 249.978 11.3623 249.978 13.9267C249.978 17.3198 247 19.7265 243.298 19.7265C240.683 19.7265 239.395 18.5033 238.711 18.5033C238.268 18.5033 238.027 18.8979 237.826 19.4898H237.262L236.86 13.8084L237.584 13.7295C238.148 17.2802 240.642 18.74 243.137 18.74C245.23 18.7005 247 17.7933 247 15.5051L247 15.5047Z" fill="#2F2F33"/>
</g>
</svg>
