<svg width="146" height="24" viewBox="0 0 146 24" fill="none" xmlns="http://www.w3.org/2000/svg">
<g id="The Telegraph svg" clip-path="url(#clip0_1_2853)">
<path id="Vector" d="M23.4959 20.9488C24.4805 20.2974 25.4312 19.5431 25.4312 18.0345V8.57164L23.9373 6.9945L23.3601 7.57735L24.6503 8.94878V18.0002C24.6503 19.2688 24.2089 20.1945 23.428 20.8116L23.4959 20.9488ZM17.7577 0.925926V1.02878C18.1991 1.20021 18.7084 1.64593 18.7084 2.50307V16.4574L18.1652 17.0059L20.2363 18.7888L20.8475 18.2745L19.1838 16.9031L19.4894 16.6288V2.64021C19.4894 1.54307 18.5047 0.994498 17.7577 0.925926ZM19.014 21.9088C21.6624 21.7031 24.2768 20.8116 24.2768 17.9659V9.05164L23.0884 7.85164L21.7643 9.1545V15.8402L22.8508 16.8345L20.3382 19.0974H20.1005L17.6559 16.9716L18.335 16.3202V2.6745C18.335 1.64593 17.4861 1.09735 16.9429 0.994498V0.754498C17.1805 0.617355 17.554 0.548783 18.0294 0.548783C18.8782 0.548783 19.6591 1.06307 19.8968 1.61164H19.9647C20.474 0.857355 21.2889 0.548783 22.0698 0.514498C22.3075 0.514498 22.5791 0.548783 22.8508 0.617355V0.891641C22.4094 1.02878 21.7643 1.57735 21.7643 2.9145V8.57164L25.0238 5.41735H25.2615C25.4991 5.65735 26.9252 6.96021 27.1968 7.13164C27.3326 7.20021 27.5024 7.26878 27.6382 7.26878C27.9098 7.26878 28.0796 7.16593 28.3173 7.06307V7.40593C28.0456 7.64593 27.7401 8.09164 27.7401 8.64021V16.3545C27.7401 19.7831 24.0391 21.8402 19.014 22.2174C19.014 22.2859 19.014 21.9088 19.014 21.9088ZM34.0554 7.02878L33.4103 7.50878C34.1573 8.40021 35.1419 9.56593 36.0926 10.6288L36.7717 10.1488C35.787 9.08593 34.8363 7.92021 34.0554 7.02878ZM33.2745 12.5145L35.7191 10.8345C34.8703 9.84021 33.9875 8.84593 33.2745 8.02307V12.5145ZM34.8703 18.2059C33.4103 17.5202 32.0861 17.0059 30.8977 16.3545C30.9656 15.9088 30.9996 15.3945 30.9996 13.9545V8.36593L30.2187 8.77736V13.9888C30.2187 15.4288 30.1847 16.3545 30.0829 16.7659C31.2373 17.4174 32.867 18.1031 34.361 18.7545L34.8703 18.2059ZM29.8112 8.53735C31.2712 7.81735 33.4443 6.5145 34.9043 5.45164H35.1759C36.1266 6.44593 37.5187 8.05735 38.707 9.12021V9.3945L33.2745 12.9602V15.1545C33.8517 15.4974 35.4136 16.3202 36.3643 16.6288L38.5373 14.5031L38.8089 14.7774L34.4289 19.0631H34.1573C32.6973 18.4116 30.7619 17.5888 29.5396 16.9031C29.6754 16.4574 29.8112 15.2916 29.8112 13.8859V8.53735ZM141.009 20.9145C141.994 20.2631 142.944 19.5088 142.944 18.0002V8.53735L141.45 6.96021L140.873 7.54307L142.163 8.9145V17.9659C142.163 19.2345 141.688 20.1602 140.941 20.7774C140.941 20.8116 141.009 20.9145 141.009 20.9145ZM135.305 0.891641L135.271 0.994498C135.712 1.16593 136.255 1.61164 136.255 2.46878V16.3888L135.712 16.9374L137.783 18.7202L138.394 18.2059L136.731 16.8345L137.036 16.5602V2.60593C137.002 1.50878 136.018 0.960212 135.305 0.891641ZM136.527 21.8745C139.175 21.6688 141.79 20.7774 141.79 17.9316V9.01735L140.601 7.78307L139.277 9.08593V15.7716L140.364 16.7659L137.851 19.0288H137.614L135.135 16.9031L135.814 16.2516V2.64021C135.814 1.61164 134.965 1.06307 134.422 0.960212V0.720212C134.66 0.583069 135.033 0.514498 135.508 0.514498C136.357 0.514498 137.138 1.02878 137.376 1.57735H137.444C137.953 0.823069 138.768 0.514498 139.549 0.480212C139.787 0.480212 140.058 0.514498 140.33 0.583069V0.857355C139.888 0.994498 139.277 1.54307 139.277 2.88021V8.57164L142.537 5.41735H142.774C143.012 5.65735 144.438 6.96021 144.71 7.13164C144.846 7.20021 145.015 7.26878 145.185 7.26878C145.457 7.26878 145.661 7.16593 145.864 7.06307V7.54307C145.593 7.78307 145.287 8.22878 145.287 8.77736V16.3888C145.287 19.8174 141.586 21.8745 136.561 22.2516L136.527 21.8745ZM66.2094 7.02878L65.5643 7.50878C66.3112 8.40021 67.2959 9.56593 68.2466 10.6288L68.9256 10.1488C67.9749 9.08593 66.9903 7.88593 66.2094 7.02878ZM65.4963 12.4802L67.941 10.8002C67.0922 9.80593 66.2094 8.81164 65.4963 7.98878V12.4802ZM67.0582 18.1716C65.5982 17.4859 64.274 16.9716 63.0856 16.3202C63.1536 15.8745 63.1875 15.3602 63.1875 13.9202V8.33164L62.4066 8.74307V13.9545C62.4066 15.3945 62.3726 16.3202 62.2708 16.7316C63.4252 17.3831 65.0549 18.0688 66.5489 18.7202L67.0582 18.1716ZM62.0331 8.50307C63.4931 7.78307 65.6661 6.48021 67.1261 5.41735H67.3977C68.3484 6.41164 69.7405 8.02307 70.9289 9.08593V9.36021L65.4963 12.9259V15.1202C66.0396 15.4631 67.6354 16.2859 68.5861 16.5945L70.7591 14.4688L71.0308 14.7431L66.6508 19.0288H66.3791C64.8852 18.3774 62.9838 17.5545 61.7615 16.8688C61.8973 16.4231 62.0331 15.2916 62.0331 13.8516V8.50307ZM75.4787 18.1374C74.494 17.8631 73.5094 17.2116 73.5094 15.8402V3.36021L72.4229 2.22878L71.8456 2.81164L72.7284 3.73735V16.1488C72.7284 17.5545 73.8489 18.4459 74.9015 18.7202L75.4787 18.1374ZM75.8182 2.29735V15.4974C75.8182 16.0459 76.3615 16.5945 76.8708 16.6974L77.6517 15.9088L77.8894 16.1831L75.1052 19.0631H74.9694C73.9168 18.8231 72.3889 17.8631 72.3889 16.2174V3.94307L71.608 3.1545L70.7931 3.97735L70.5554 3.70307L73.6791 0.514498H73.8829L75.8182 2.29735ZM83.3219 7.02878L82.6768 7.50878C83.4238 8.40021 84.4084 9.56593 85.3591 10.6288L86.0382 10.1488C85.0875 9.05164 84.1029 7.88593 83.3219 7.02878ZM82.5749 12.4802L85.0196 10.8002C84.1708 9.80593 83.288 8.81164 82.5749 7.98878V12.4802ZM84.1368 18.1716C82.6768 17.4859 81.3526 16.9716 80.1643 16.3202C80.2322 15.8745 80.2661 15.3602 80.2661 13.9202V8.33164L79.4852 8.74307V13.9545C79.4852 15.3945 79.4512 16.3202 79.3494 16.7316C80.5038 17.3831 82.1336 18.0688 83.6275 18.7202L84.1368 18.1716ZM79.1117 8.50307C80.5717 7.78307 82.7447 6.48021 84.2047 5.41735H84.4763C85.427 6.41164 86.8191 8.02307 88.0075 9.08593V9.36021L82.6089 12.9259V15.1202C83.1522 15.4631 84.748 16.2859 85.6987 16.5945L87.8717 14.4688L88.1433 14.7431L83.7294 19.0288H83.4577C81.9977 18.3774 80.0624 17.5545 78.8401 16.8688C78.9759 16.4231 79.1117 15.2916 79.1117 13.8516V8.50307ZM106.58 7.88593C107.021 8.29735 107.633 8.88021 108.142 9.32593L108.651 8.74307C108.176 8.29735 107.429 7.68021 107.089 7.30307C107.055 7.26878 106.58 7.88593 106.58 7.88593ZM105.256 18.1374C104.237 17.8631 103.287 17.2116 103.287 15.8402V8.29735L102.234 7.20021L101.623 7.78307L102.506 8.70878V16.1831C102.506 17.5888 103.626 18.4802 104.679 18.7545L105.256 18.1374ZM105.561 9.05164V15.5316C105.561 16.1145 106.071 16.5945 106.614 16.6974L107.395 15.9431L107.633 16.2174L104.848 19.0974H104.679C103.626 18.8574 102.132 17.8974 102.132 16.2516V8.84593L101.351 8.05735L100.536 8.88021L100.265 8.60593L103.388 5.41735H103.626L105.595 7.37164V8.4345L108.108 5.41735H108.346C108.855 5.93164 109.636 6.68593 110.315 7.20021V7.2345L108.21 9.77164H108.176C107.599 9.25735 106.818 8.53735 106.376 8.09164C106.308 8.12593 105.561 9.05164 105.561 9.05164ZM116.359 16.0116V12.0002C115.578 11.7945 114.763 11.4516 113.982 11.0745V16.0459L115.374 16.9031L116.359 16.0116ZM119.516 18.1716C118.566 17.8288 117.547 17.1088 117.547 15.7716V8.81164L113.778 6.89164C113.676 6.96021 113.235 7.26878 113.099 7.37164L116.732 9.29164V16.0459C116.732 17.3488 117.921 18.3431 118.905 18.7202L119.516 18.1716ZM116.359 11.5888V9.49735L112.794 7.61164C112.522 7.81736 111.571 8.40021 111.266 8.57164C112.114 9.70307 114.321 11.0745 116.359 11.5888ZM114.22 18.1031L111.707 16.4231V12.6859L110.96 13.2688V16.9031L113.642 18.7202C113.642 18.6859 114.22 18.1031 114.22 18.1031ZM113.574 19.0631L110.553 17.0402V13.0631C111.3 12.5145 112.895 11.4174 113.642 10.8688C112.454 10.2174 111.435 9.42878 110.824 8.6745V8.40021C112.624 7.37164 113.914 6.41164 115.001 5.41735H115.238C115.238 5.41735 118.939 7.20021 119.143 7.26878C119.347 7.37164 119.482 7.44021 119.686 7.44021C119.958 7.44021 120.161 7.37164 120.433 7.2345V7.64593C120.161 7.85164 119.856 8.22878 119.856 8.81164V15.4974C119.856 16.1831 120.467 16.6631 120.908 16.7659L121.689 15.9774L121.927 16.2516L119.143 19.1316H118.973C117.887 18.8231 116.664 17.7602 116.461 16.5259L113.778 19.1659C113.744 19.0974 113.574 19.0974 113.574 19.0631ZM95.2396 16.0116V9.08593L92.727 7.98878V15.8745L94.2889 16.9374L95.2396 16.0116ZM96.428 8.29735L92.727 6.72021V7.54307L95.6131 8.81164V16.4231C95.6131 18.0688 96.3261 19.8516 97.4126 21.2231L97.9898 20.6402C97.0391 19.3716 96.394 17.9659 96.394 16.3202L96.428 8.29735ZM92.4554 18.6859L93.0666 18.1374L90.4182 16.4231V8.26307L89.6712 8.81164V16.8002L92.4554 18.6859ZM91.4029 21.9088C90.4182 21.9088 89.5694 22.3545 89.0601 23.0402V23.1774C89.6373 22.8345 90.3163 22.6288 91.4029 22.6288C92.6931 22.6288 94.3568 23.0059 95.3075 23.5202L95.8168 22.9031C94.6963 22.3545 93.1005 21.9088 91.4029 21.9088ZM89.2638 16.9716V8.57164L93.6777 5.45164H93.9494C94.7982 5.82878 97.6503 7.02878 97.9898 7.20021C98.1256 7.2345 98.2954 7.30307 98.4652 7.30307C98.7368 7.30307 99.0084 7.20021 99.314 7.06307V7.54307C99.0424 7.78307 98.7029 8.29735 98.7029 8.70878V15.8402C98.7029 17.5202 99.0424 18.4802 99.7215 19.1659V19.4402C98.7368 20.4345 96.4959 22.7659 95.5112 24.0002H95.3415C94.3908 23.4516 92.761 23.0402 91.4368 23.0402C90.4521 23.0402 89.3656 23.3145 88.5168 23.9659L88.3131 23.7945C89.0601 22.0116 90.6898 20.1945 92.761 20.1945C94.0512 20.1945 95.7489 20.7431 97.1749 21.5316C96.1903 20.4002 95.3075 18.3088 95.2736 16.5602L92.6591 19.0974H92.4554L89.2638 16.9716ZM128.718 7.64593L130.076 8.98307V16.3202L130.857 15.8745V8.57164L129.329 7.02878L128.718 7.64593ZM129.261 18.9259C129.397 18.7202 129.668 18.4459 129.804 18.2745L127.122 17.6916V18.4459L129.261 18.9259ZM129.668 16.3202V9.08593L128.48 7.85164L127.156 9.12021V15.8059C127.733 15.9431 129.363 16.2516 129.668 16.3202ZM124.1 21.2916L123.557 21.8059L125.56 23.5545L126.171 23.0059L124.609 21.6688L124.881 21.3945V8.36593L123.761 7.2345L123.217 7.78307L124.1 8.70878V21.2916ZM127.122 8.57164L130.381 5.45164H130.619C130.857 5.69164 132.351 7.02878 132.588 7.20021C132.724 7.26878 132.894 7.30307 133.03 7.30307C133.301 7.30307 133.505 7.20021 133.709 7.09735V7.54307C133.437 7.74878 133.132 8.22878 133.132 8.77736V16.8345C131.74 17.1774 130.619 17.9316 129.431 19.3374H129.329L127.156 18.8916V20.6745L128.276 21.7031L125.628 23.9316H125.492L123.014 21.8059L123.693 21.0859V18.1031C123.421 18.0345 122.912 17.9659 122.674 17.8974V17.5202C122.98 17.3831 123.761 16.6288 123.761 15.9774V8.88021L122.98 8.09164L122.165 8.9145L121.893 8.64021L125.017 5.45164H125.254L127.224 7.40593L127.122 8.57164ZM7.77542 12.4802L7.74147 8.98307L6.96054 9.53164V12.7888C6.96054 13.1316 6.89263 13.4402 6.79077 13.6802H6.89263C7.36798 13.3716 7.77542 12.8916 7.77542 12.4802ZM3.76891 6.9945C2.64844 8.12593 1.59588 9.70307 1.59588 11.6916C1.59588 16.4231 4.75356 18.8231 8.76007 18.8231C11.2387 18.8231 13.0043 17.4516 14.0229 16.4231L13.955 16.3202C12.8005 17.2802 11.2047 18.0345 8.76007 18.0345C5.53449 18.0345 2.41077 16.0459 2.41077 11.6574C2.41077 9.94307 3.05588 8.22878 3.87077 7.06307L3.76891 6.9945ZM12.3591 5.14307C9.37123 5.14307 6.65495 3.66878 4.48193 3.66878C3.08984 3.66878 1.46007 4.25164 0.882861 5.89736L0.984722 5.93164C1.62984 4.80021 3.15774 4.42307 4.48193 4.42307C6.65495 4.42307 9.37123 5.93164 12.3591 5.93164C14.7698 5.93164 16.1619 5.10878 16.3996 3.1545L16.2638 3.12021C15.9243 4.5945 14.7698 5.14307 12.3591 5.14307ZM1.18844 11.6916C1.18844 8.46878 3.59914 6.24021 5.84007 5.24593L6.00984 5.45164C5.19495 6.41164 4.61774 7.33736 4.61774 9.29164C4.61774 11.5202 5.19495 13.0631 6.1117 14.0916C6.41728 13.7488 6.58705 13.2002 6.58705 12.7202V9.3945L10.6275 6.48021L10.7973 6.72021C10.4577 7.2345 10.254 7.7145 10.254 8.50307V10.6288C10.254 12.1031 7.84333 13.7145 6.34937 14.3316C7.33402 15.2916 8.72612 15.7031 10.254 15.7031C10.7973 15.7031 11.3066 15.6688 11.748 15.6002V6.24021C10.4238 6.17164 9.16751 5.7945 8.01309 5.48593C6.79077 5.10878 5.53449 4.80021 4.48193 4.80021C2.85216 4.80021 0.882861 5.34878 0.848908 7.74878C0.848908 7.9545 0.882861 8.1945 0.916815 8.4345L0.611234 8.53735C0.339606 7.78307 0.169838 7.06307 0.169838 6.34307C0.135885 3.46307 2.241 0.925926 5.63635 0.925926C7.0624 0.925926 8.42054 1.26878 9.57495 1.61164C10.8312 1.98878 12.0875 2.29735 13.3777 2.29735C14.0229 2.29735 14.3963 1.9545 14.3963 1.33735C14.3963 0.720212 14.0568 0.445926 13.5815 0.308783L13.6494 0.000212051C15.1094 0.274498 16.7052 1.13164 16.7052 2.98307C16.7052 5.21164 15.1094 6.2745 12.3931 6.2745H12.1215V15.5316C13.887 15.1888 15.0754 14.3659 15.9582 12.9259L16.2298 13.0974C15.2452 16.2516 12.9363 19.2688 8.79402 19.2688C4.61774 19.2345 1.18844 16.7659 1.18844 11.6916ZM52.0508 12.4802L52.0168 8.98307L51.2359 9.53164V12.7888C51.2359 13.1316 51.168 13.4402 51.0661 13.6802H51.168C51.6773 13.3716 52.0508 12.8916 52.0508 12.4802ZM48.0782 6.9945C46.9577 8.12593 45.9052 9.70307 45.9052 11.6916C45.9052 16.4574 49.0629 18.8231 53.0694 18.8231C55.548 18.8231 57.3136 17.4516 58.2982 16.4231L58.2303 16.3202C57.0759 17.2802 55.4801 18.0345 53.0694 18.0345C49.8438 18.0345 46.7201 16.0459 46.7201 11.6574C46.7201 9.90878 47.3312 8.1945 48.1461 7.02878L48.0782 6.9945ZM56.6684 5.14307C53.6805 5.14307 50.9642 3.66878 48.7912 3.66878C47.3991 3.66878 45.7694 4.25164 45.1922 5.89736L45.294 5.93164C45.9391 4.80021 47.467 4.42307 48.7912 4.42307C50.9642 4.42307 53.6805 5.93164 56.6684 5.93164C59.0791 5.93164 60.4712 5.10878 60.7089 3.1545L60.5731 3.12021C60.2336 4.5945 59.0791 5.14307 56.6684 5.14307ZM45.4977 11.6916C45.4977 8.46878 47.9084 6.24021 50.1494 5.24593L50.2852 5.45164C49.4703 6.41164 48.8931 7.33736 48.8931 9.29164C48.8931 11.5202 49.4703 13.0631 50.387 14.0916C50.6926 13.7488 50.8624 13.2002 50.8624 12.7202V9.3945L54.9029 6.48021L55.0726 6.72021C54.6991 7.2345 54.5294 7.7145 54.5294 8.50307V10.6288C54.5294 12.1031 52.1187 13.7145 50.6247 14.3316C51.6094 15.2916 53.0015 15.7031 54.5294 15.7031C55.0726 15.7031 55.5819 15.6688 56.0233 15.6002V6.24021C54.6991 6.17164 53.4429 5.7945 52.3224 5.48593C51.1001 5.10878 49.8438 4.80021 48.7912 4.80021C47.1615 4.80021 45.1922 5.34878 45.1582 7.74878C45.1582 7.9545 45.1922 8.1945 45.1922 8.4345L44.8866 8.53735C44.6149 7.78307 44.4452 7.06307 44.4452 6.34307C44.4112 3.42878 46.5163 0.891641 49.9117 0.891641C51.3377 0.891641 52.6959 1.2345 53.8503 1.57735C55.1066 1.92021 56.3629 2.26307 57.6531 2.26307C58.2982 2.26307 58.6717 1.92021 58.6717 1.30307C58.6717 0.685926 58.3661 0.377355 57.8908 0.240212L57.9247 -0.0683594C59.3847 0.205926 60.9805 1.06307 60.9805 2.9145C60.9805 5.14307 59.3847 6.20593 56.7024 6.20593H56.4308V15.4631C58.1963 15.1202 59.3847 14.2974 60.2675 12.8574L60.5391 13.0288C59.5545 16.1831 57.2456 19.2002 53.1033 19.2002C48.927 19.2345 45.4977 16.7659 45.4977 11.6916Z" fill="#2F2F33"/>
</g>
<defs>
<clipPath id="clip0_1_2853">
<rect width="146" height="24" fill="white"/>
</clipPath>
</defs>
</svg>
