<svg width="124" height="40" viewBox="0 0 124 40" fill="none" xmlns="http://www.w3.org/2000/svg">
<g id="The Guardian svg" clip-path="url(#clip0_1_2855)">
<g id="Group">
<path id="Vector" d="M27.8896 21.3053L29.9771 20.2105V3.49474H28.3906L24.5077 8.71579H24.0902L24.299 2.90526H41.2081L41.4586 8.71579H40.9993L37.1582 3.49474H35.53V20.1684L37.6175 21.3053V21.8526H27.9313L27.8896 21.3053ZM43.3374 20.5474V2.06316L41.7508 1.43158V1.05263L47.6795 0H48.3057V8.75789L48.431 8.58947C49.8505 7.36842 51.6458 6.69474 53.5246 6.69474C56.1131 6.69474 57.2822 8.16842 57.2822 10.9053V20.5895L58.6599 21.3053V21.8526H50.936V21.3053L52.3556 20.5474V10.9053C52.3556 9.38947 51.6875 8.8 50.435 8.8C49.6835 8.8 48.9737 9.01053 48.3892 9.47368V20.5895L49.767 21.3474V21.8526H42.0431V21.3474L43.3374 20.5474ZM63.5448 14.9053C63.7118 17.9368 65.0478 20.2947 68.3044 20.2947C69.8492 20.2947 70.9347 19.5789 71.9784 19.0316V19.6632C70.5589 21.3474 68.4714 22.3158 66.3003 22.2737C61.2902 22.2737 58.7852 19.4947 58.7852 14.6526C58.7852 9.89474 61.5407 6.94737 66.0498 6.94737C70.3084 6.94737 72.5212 9.05263 72.5212 14.6947V14.8632L63.5448 14.9053ZM63.4613 14.1895L67.8451 13.8947C67.8451 10.1053 67.2189 7.57895 65.9246 7.57895C64.5468 7.57895 63.4613 10.5263 63.4613 14.1474M0 29.2632C0 21.2211 5.30236 18.3158 11.1892 18.3158C13.6943 18.3158 16.0323 18.7368 17.3683 19.2842L17.4936 24.9263H16.9091L13.4438 19.4526C12.734 19.2 12.0242 19.0737 11.2727 19.1158C8.14141 19.1158 6.55488 22.7789 6.59663 28.7579C6.63838 35.9158 7.84916 39.1579 10.7717 39.1579C11.3562 39.1579 11.9407 39.0737 12.4835 38.8632V31.2L10.6047 30.1053V29.4316H19.7899V30.1474L17.9111 31.2V38.7789C15.6566 39.5789 13.3185 39.9579 10.9387 39.9579C4.25859 39.9579 0 36.8 0 29.2632ZM19.6646 25.4737V25.0526L25.8855 23.9579L26.5535 24V36.2105C26.5535 37.7263 27.2633 38.1474 28.4323 38.1474C29.2256 38.1474 29.9354 37.8105 30.4364 37.2211V26.2737L28.7663 25.5158V25.0105L34.9037 23.9579L35.4882 24.0421V38.0632L37.1582 38.7368V39.2L31.0626 39.9579L30.4781 39.9158V38.0632H30.3111C29.0586 39.2421 27.3886 39.9579 25.6768 39.9579C22.7125 39.9579 21.2929 38.1895 21.2929 35.5368V26.2737L19.6646 25.4737ZM59.1192 23.9158L59.6202 23.9579V28.5053H59.7872C60.4552 25.1789 61.8747 23.9579 63.67 23.9579C63.9205 23.9579 64.171 24 64.4216 24.0842V28.7158C64.004 28.6316 63.5865 28.5895 63.169 28.5895C62 28.5474 60.8727 28.8 59.829 29.2632V38.1895L61.2485 38.9895V39.5368H53.1906V38.9895L54.6519 38.1895V25.9789L52.9818 25.4737V25.0526L59.1192 23.9158ZM74.6088 24.2947V19.5368L72.9387 18.9053V18.5263L79.2013 17.3895L79.7441 17.4737V38.0211L81.4976 38.6526V39.1158L75.3185 39.9579L74.8593 39.9158V38.2316H74.6923C73.6485 39.3684 72.1455 40 70.6007 39.9579C67.2606 39.9579 64.7973 37.3895 64.7973 32.0842C64.7973 26.5263 67.6781 23.7895 71.9784 23.7895C72.897 23.7474 73.7737 23.9158 74.6088 24.2947ZM74.6088 37.4316V25.2211C74.1495 24.8421 73.565 24.6316 72.9387 24.6737C71.2687 24.7158 70.2249 27.2842 70.2249 31.7895C70.2249 35.8316 70.9764 38.1053 73.1475 38.0211C73.6902 38.0211 74.1912 37.8526 74.6088 37.4316ZM88.303 23.9579H88.8458V38.2737L90.2653 39.0316V39.5368H82.2492V38.9895L83.6687 38.1895V26.2316L81.9986 25.5158V25.0526L88.303 23.9579ZM88.8875 20.0842C88.8458 21.5579 87.635 22.7789 86.1737 22.7368H86.132C84.6707 22.7368 83.5017 21.5579 83.5017 20.0842C83.5017 18.6105 84.6707 17.4316 86.132 17.4316C87.635 17.3895 88.8458 18.5684 88.8875 20.0842ZM108.218 38.2316V26.0632L106.548 25.4737V24.8842L112.686 23.7053L113.312 23.7895V25.6H113.479C114.94 24.3368 116.777 23.6211 118.698 23.6211C121.37 23.6211 122.58 24.8842 122.58 27.7474V38.1895L124 38.9895V39.5368H115.984V38.9895L117.445 38.1895V28.0842C117.445 26.4842 116.777 25.8526 115.483 25.8526C114.731 25.8526 113.98 26.1053 113.395 26.5684V38.1895L114.773 38.9895V39.5368H106.799V38.9895L108.218 38.2316ZM99.3252 30.6526V28.5895C99.3252 25.5158 98.699 24.5474 96.8202 24.5474C96.6115 24.5474 96.3609 24.5474 96.1522 24.5474L92.8121 29.1789H92.3529V24.9684C94.1481 24.3368 96.0687 24 97.9892 23.9579C102.081 23.9579 104.461 25.0947 104.461 28.5895V38.4842L105.922 38.9053V39.2842C105.003 39.7474 103.96 40 102.916 39.9579C100.87 39.9579 99.9098 39.2842 99.4505 38.1895H99.3252C98.4902 39.3684 97.2377 40 95.3172 40C92.8956 40 91.2256 38.4842 91.2256 35.8316C91.2256 33.3053 92.8121 31.8737 96.0269 31.2842L99.3252 30.6526ZM99.3252 37.4737V31.3263L98.3232 31.4105C96.695 31.5368 96.1522 32.5474 96.1522 34.8632C96.1522 37.3474 96.9454 37.9789 98.0727 37.9789C98.5737 38.0211 99.033 37.8105 99.3252 37.4737ZM45.8007 30.5684V28.5895C45.8007 25.5158 45.1327 24.5053 43.2539 24.5053C43.0451 24.5053 42.8364 24.5474 42.6276 24.5895L39.2458 29.0947H38.8283V24.8842C40.6236 24.2526 42.5024 23.9579 44.4229 23.9158C48.5145 23.9158 50.8943 25.0526 50.8943 28.5474V38.4421L52.3556 38.8632V39.2421C51.437 39.7053 50.3933 39.9579 49.3495 39.9158C47.3037 39.9158 46.3434 39.2421 45.8842 38.1474H45.7589C44.9239 39.3263 43.6714 39.9579 41.7926 39.9579C39.3293 39.9579 37.701 38.4421 37.701 35.7895C37.701 33.2632 39.2458 31.8316 42.4606 31.2421L45.8007 30.5684ZM45.8007 37.4316V31.3263L44.7569 31.4105C43.1704 31.5368 42.5859 32.5474 42.5859 34.8632C42.5859 37.3474 43.4209 37.9789 44.5064 37.9789C45.0074 38.0211 45.4667 37.8105 45.8007 37.4316Z" fill="#2F2F33"/>
</g>
</g>
<defs>
<clipPath id="clip0_1_2855">
<rect width="124" height="40" fill="white"/>
</clipPath>
</defs>
</svg>
